<svg width="73" height="78" viewBox="0 0 73 78" fill="none" xmlns="http://www.w3.org/2000/svg">
<path d="M38.6821 32.1083C40.1738 32.1083 48.6268 28.8089 63.0466 35.4076C75.4774 42.949 71.9999 53.5 69.6292 58.0318C67.308 62.4692 56.4998 73.2495 49.7398 75C28.4998 80.5 19.2956 67 18.2956 62.5C23.2956 65.5 29.9998 67.9299 36.3145 67.9299C40.1202 67.4745 47.8891 66.02 53.4998 61.5C57.8839 57.9682 63.9487 42.9707 50.6157 39.6497C46 38.5 28.6714 40.428 20.4999 45.5C6 54.5 16.6956 67 18.2956 75C20.2956 85 2.84237 53.9356 2.11272 51C2.14577e-06 42.5 0.0788901 42 3.61278 32.1083C5.74896 26.1289 13.6827 16.4327 30.7264 1C26.7486 8.38429 14.8149 25.5096 18.2956 32.1083C21.6972 38.5572 37.5703 32.1083 38.6821 32.1083Z" fill="black" stroke="black"/>
</svg>
